<?xml version="1.0" encoding="UTF-8"?>
<svg version="1.1" viewBox="0 0 1024 1024" width="1280" height="1280" xmlns="http://www.w3.org/2000/svg">
<path transform="translate(0)" d="m0 0h1024v1024h-1024z" fill="#262626"/>
<path transform="translate(502,215)" d="m0 0h21l21 3 21 6 18 8 15 9 13 10 13 12 10 12 9 14 8 16 7 19 4 18 1 8v78l-1 2h11l16 4 14 6 11 8 12 12 9 14 6 14 3 14-1-8-5-16-7-14-7-9-7-8-15-11-15-7-15-4-7-1v-1h10l16 4 17 8 12 9 12 12 9 14 5 11 4 13 1 7v24l1-9v-9l-3-19-5-15-7-13-10-13-11-10-14-9-16-7-18-4v-1h8l16 4 12 5 14 8 13 12 9 10 8 13 6 14 4 18v25l-3 15-4 12 5-14 3-18v-16l-3-18-6-17-9-16-9-11-8-8-14-10-14-7-16-5-10-2v-1l13 1 16 5 16 8 10 7 10 9 7 7 7 10 9 17 5 16 2 12v25l-4 18-5 13-8 15 6-9 7-17 4-16 1-8v-21l-4-20-6-16-7-13-10-13-11-11-14-10-16-8-16-5-10-2v-1h7l19 5 16 7 15 10 10 9 8 8 10 14 8 17 5 16 2 12v26l-3 16-6 17-8 15-9 12-6 7-8 7-14 10-16 8-15 5-18 3h-68l-68-1-45-1v-1l16-1 62-1 96-1 18-2 17-5 17-8 2-2-15 8-15 5-17 3h-72l-111-2v-1l12-1 49-1 77-1 46-1h-78l-104-2 3-2 99-2-4-1-91-2-11-1v-1l82-2 20-1-90-2-13-1v-1l97-3-82-2-15-1v-1l50-2 49-1-84-2-15-1v-1l11-1 29-1 53-1-52-1-40-2 2-2 76-2-63-2-16-1 1-2 56-2-58-3 1 105 4 10 7 8 10 5 12 1 9-2 9-6 6-7 4-13h1l-1 9-5 10-7 7-10 5-4 1h-12l-11-4-8-6-7-10-2-6-1-12v-69l1-70 1-33-5 1 1 65 1 116 4 12 6 8 8 6 10 4 12 1 12-3 10-6 7-8 4-8 2-3-1 7-6 10-8 8-12 6-4 1h-16l-12-4-8-6-8-9-5-12-1-5v-100l1-55 1-25h-6l1 23 1 52 1 107 3 10 5 9 6 7 11 7 9 3 12 1 14-3 10-5 10-9 7-14 2-7h1l-1 9-7 14-7 8-11 7-12 4h-19l-12-4-12-8v-2h-2l-7-10-5-12v-4h-2l4 13 6 10 5 6 10 7 12 5 4 1h20l12-4 9-5 10-9 7-12 4-12h1l-1 8-5 12-8 11-8 7-14 7-14 3h-9l-14-3-14-7-10-9-9-14v-3h-2l7 13 9 10 9 7 11 5 8 2h22l13-4 11-6 11-10 8-13 5-16h1l-1 10-5 12-7 11-8 8-11 7-12 5-9 2h-16l-16-4-13-7-12-11-6-9 1 3 7 9 7 7 13 8 16 5 16 1 16-3 14-6 13-10 9-11 6-12 4-16h1v7l-4 14-7 13-11 12-9 7-14 7-13 3h-21l-15-4-11-5 14 7 12 3 14 1 16-2 13-5 11-6 11-9 8-10 8-16 4-16h1v8l-4 13-8 16-9 10-7 7-11 7-11 5-12 3-8 1h-10l-13-2-11-3 12 4 6 1h25l15-4 16-8 13-10 9-11 8-14 4-11 2-10h1v8l-5 16-8 15-8 10-11 10-14 8-12 5-15 3h-18-3 25l14-3 15-6 15-10 12-12 9-14 5-10 4-13 2-14h1v10l-4 18-6 14-8 12-11 12-10 8-14 8-15 5-10 2h2l17-4 16-7 12-8 10-9 9-10 9-16 6-16 3-17h1v10l-4 18-7 16-8 12-11 12-10 9-14 8-1 1 14-7 13-10 9-9 10-14 8-16 5-16 3-16h1l-1 14-4 17-5 13-8 14-8 10-7 8-14 11-14 8 15-8 11-8 10-9 8-9 11-18 6-15 4-17 2-11h1l-1 16-4 17-6 15-6 11-9 12-9 10-12 10-4 3 13-9 12-11 9-11 8-13 6-12 5-16 3-20 2-1v9l-3 18-6 18-10 19-11 14-11 11-8 6 9-6 13-12 11-14 8-14 6-14 5-17 2-17h2v10l-4 22-6 16-8 16-9 12-9 10-8 8 8-6 7-7 11-14 10-17 6-15 5-17 3-20h1v12l-3 18-5 17-7 16-9 14-8 10-6 7 7-6 11-14 8-13 9-19 6-21 3-22h-40l-99-1-27-1v-1l76-1 105-1 18-2 20-5 23-10 16-10 11-9 15-15 12-17 10-19 7-21 3-15 1-8v-26l-3-19-5-18-8-18-10-16-9-11-9-10-13-11-14-9-15-8-16-6-17-4-17-2v-1h11l17 3 20 6 21 10 13 9 11 9 14 14 11 15 9 16 6 14 5 16 3 17 1 14v11l-2 18-5 20-8 20-8 14-10 14-12 13-11 10-14 10-19 10-24 8-16 3-11 1h-9v16l-3 19-5 16-7 17-8 14-10 13-9 10-8 8-16 12-18 10-15 6-18 5-11 2-11 1h-16l-18-2-21-5-19-8-16-9-16-12-11-10-7-8-11-15-8-14-8-20-5-19-2-16v-57l1-48-11-1-12-4-11-7-8-8-7-11-4-10 4 12 7 12 9 9 11 7 10 4 11 2v2l-12-1-12-4-10-6-10-9-8-10-6-14-2-7 4 15 8 14 9 10 9 7 14 7 16 4v1l-13-1-15-5-14-9-11-11-8-13-5-14 2 9 8 16 7 9 9 9 13 8 13 5 14 3v1l-13-1-14-4-12-6-9-7-10-10-9-14-5-13-3-16 2 14 5 15 6 11 7 9 2 4 4 2 8 7 12 7 14 5 15 3v1l-15-1-16-5-13-7-9-7-11-11-7-11-7-15-3-13 2 12 5 13 8 14 11 13 13 10 16 8 13 4 13 2v1h-10l-17-4-16-7-13-9-14-14-11-18-6-18-2-15v-10l3-20-3 16v19l3 16 4 12 6 12 8 11 9 10 13 10 15 8 16 5 13 2v1h-9l-17-4-15-6-14-9-10-9-7-7-7-10-8-15-4-13-2-9-1-11v-9l2-15 2-10-4 19v23l3 16 6 16 7 13 10 13 8 8 14 10 16 8 16 5 11 2v1h-8l-17-4-17-7-11-7-10-8-11-11-9-13-8-16-5-17-2-17 1-20 4-17 6-14v-2l-6 15-4 15-1 7v26l3 16 6 16 8 15 10 13 11 11 16 11 17 8 19 5 6 1v1l-13-1-20-6-16-8-16-12-12-12-10-14-9-19-4-13-2-11-1-11v-9l2-17 5-18 9-19 8-11 9-10 7-7 14-10 16-8 18-6 12-2h101l57 1 25 1v1l-38 1-140 2-18 3-17 6-7 4 13-6 13-4 11-2h104l52 1 31 1v1l-29 1-54 1-95 1-9 1h104l85 2v1l-21 1-46 1-80 1 113 2 34 1v1l-11 1-38 1-60 1 73 2 32 1 3 2-81 2 5 1 72 2 5 1v1l-64 2-8 1 69 2 3 2-51 2-11 1 63 2v2l-60 3 54 2 5 1v1l-37 2-22 1 50 2 11 1-1-105-3-9-6-8-8-5-6-2h-15l-12 6-7 8-2 2 1-4 5-7 9-6 9-3h12l11 4 10 9 5 9 2 8v139l-1 35-1 5h7l-1-5-1-34-1-142-3-10-6-9-8-7-9-4-4-1h-15l-11 4-8 6-5 6-5 10-1-3 5-10 7-8 10-6 9-3h16l11 4 9 6 7 8 5 11 1 4 1 42v44l-1 64-1 33h6l-1-7-1-37-1-137-2-9-5-10-9-10-10-6-10-3h-17l-11 4-10 6-8 9-5 10-2 3 1-7 7-12 7-7 10-6 8-3 4-1h18l10 3 8 4 10 9 7 10 4 12 1 7v101l-1 49-1 28 27-1-1-18-1-36-1-123-2-15-6-16-7-11-12-12-11-7-11-5-13-3h-21l-15 4-16 8-11 9-9 11-7 14-4 15h-1v-7l5-15 8-14 12-13 15-10 16-6 13-2h13l15 3 13 5 14 9 12 12 4 5-7-9-9-9-11-7-10-5-14-4-6-1h-20l-17 4-16 8-9 7-7 6-8 11-8 16-4 14-1 8h-1v-9l4-16 8-16 8-11 9-9 15-10 15-6 13-3h22l17 4 12 5-11-5-15-4-7-1h-16l-14 2-12 4-14 7-10 8-11 11-9 14-6 14-3 12-1 7h-1v-9l4-16 8-16 7-11 14-14 14-9 10-5 14-4 6-1h25l14 3 4 1-15-4-8-1h-16l-17 3-15 5-11 6-11 8-12 12-10 15-6 14-4 15-1 6h-1v-8l4-16 5-12 6-11 7-9 9-10 15-11 17-8 14-4 16-2h-5l-18 3-17 6-15 8-11 9-10 10-9 13-7 14-5 16-3 18h-1v-9l4-20 6-16 9-15 9-11 8-8 14-10 16-8 17-5 16-2-18 2-17 5-17 8-16 12-11 11-11 16-8 17-5 19-2 13h-1v-11l4-19 6-16 8-14 11-14 10-10 14-10 16-8 15-5-17 5-16 8-13 9-12 11-8 9-10 16-7 16-4 14-3 17h-1v-10l4-20 6-16 7-13 8-11 9-10 9-9 14-10 11-6-17 9-12 9-12 11-10 12-10 17-6 15-5 19-2 14h-1v-13l3-16 6-18 9-17 10-14 12-13 14-11 16-9-14 7-14 10-15 14-10 13-9 16-6 14-5 17-3 22h-1v-16l4-20 6-17 10-19 10-13 11-12 12-10-9 6-14 13-8 10-10 15-8 17-6 18-3 16-1 12h-1v-17l4-20 6-18 8-16 8-12 9-11 12-12 12-9-9 6-14 12-9 10-10 14-10 18-7 19-4 16-2 17h-1v-16l4-20 7-20 10-19 10-14 11-12 10-10 17-12 21-11 21-7 16-3z" fill="#BB2593"/>
<path transform="translate(502,215)" d="m0 0h21l21 3 21 6 18 8 15 9 13 10 13 12 10 12 9 14 8 16 7 19 4 18 1 8v78l-1 2h11l16 4 14 6 11 8 12 12 9 14 6 14 3 14-1-8-5-16-7-14-7-9-7-8-15-11-15-7-15-4-7-1v-1h10l16 4 17 8 12 9 12 12 9 14 5 11 4 13 1 7v24l1-9v-9l-3-19-5-15-7-13-10-13-11-10-14-9-16-7-18-4v-1h8l16 4 12 5 14 8 13 12 9 10 8 13 6 14 4 18v25l-3 15-4 12 5-14 3-18v-16l-3-18-6-17-9-16-9-11-8-8-14-10-14-7-16-5-10-2v-1l13 1 16 5 16 8 10 7 10 9 7 7 7 10 9 17 5 16 2 12v25l-4 18-5 13-8 15 6-9 7-17 4-16 1-8v-21l-4-20-6-16-7-13-10-13-11-11-14-10-16-8-16-5-10-2v-1h7l19 5 16 7 15 10 10 9 8 8 10 14 8 17 5 16 2 12v26l-3 16-6 17-8 15-9 12-6 7-8 7-14 10-16 8-15 5-18 3h-68l-68-1-45-1v-1l16-1 62-1 96-1 18-2 17-5 17-8 2-2-15 8-15 5-17 3h-72l-111-2v-1l12-1 49-1 77-1 46-1h-78l-104-2 3-2 99-2-4-1-91-2-11-1v-1l82-2 20-1-90-2-13-1v-1l97-3-82-2-15-1v-1l50-2 49-1-84-2-15-1v-1l11-1 29-1 53-1-52-1-40-2 2-2 76-2-63-2-16-1 1-2 56-2-58-3v-16l57-3h13l-1-5-1-34-1-142-3-10-6-9-8-7-9-4-4-1h-15l-11 4-8 6-5 6-5 10-1-3 5-10 7-8 10-6 9-3h16l11 4 9 6 7 8 5 11 1 4 1 42v44l-1 64-1 33h6l-1-7-1-37-1-137-2-9-5-10-9-10-10-6-10-3h-17l-11 4-10 6-8 9-5 10-2 3 1-7 7-12 7-7 10-6 8-3 4-1h18l10 3 8 4 10 9 7 10 4 12 1 7v101l-1 49-1 28 27-1-1-18-1-36-1-123-2-15-6-16-7-11-12-12-11-7-11-5-13-3h-21l-15 4-16 8-11 9-9 11-7 14-4 15h-1v-7l5-15 8-14 12-13 15-10 16-6 13-2h13l15 3 13 5 14 9 12 12 4 5-7-9-9-9-11-7-10-5-14-4-6-1h-20l-17 4-16 8-9 7-7 6-8 11-8 16-4 14-1 8h-1v-9l4-16 8-16 8-11 9-9 15-10 15-6 13-3h22l17 4 12 5-11-5-15-4-7-1h-16l-14 2-12 4-14 7-10 8-11 11-9 14-6 14-3 12-1 7h-1v-9l4-16 8-16 7-11 14-14 14-9 10-5 14-4 6-1h25l14 3 4 1-15-4-8-1h-16l-17 3-15 5-11 6-11 8-12 12-10 15-6 14-4 15-1 6h-1v-8l4-16 5-12 6-11 7-9 9-10 15-11 17-8 14-4 16-2h-5l-18 3-17 6-15 8-11 9-10 10-9 13-7 14-5 16-3 18h-1v-9l4-20 6-16 9-15 9-11 8-8 14-10 16-8 17-5 16-2-18 2-17 5-17 8-16 12-11 11-11 16-8 17-5 19-2 13h-1v-11l4-19 6-16 8-14 11-14 10-10 14-10 16-8 15-5-17 5-16 8-13 9-12 11-8 9-10 16-7 16-4 14-3 17h-1v-10l4-20 6-16 7-13 8-11 9-10 9-9 14-10 11-6-17 9-12 9-12 11-10 12-10 17-6 15-5 19-2 14h-1v-13l3-16 6-18 9-17 10-14 12-13 14-11 16-9-14 7-14 10-15 14-10 13-9 16-6 14-5 17-3 22h-1v-16l4-20 6-17 10-19 10-13 11-12 12-10-9 6-14 13-8 10-10 15-8 17-6 18-3 16-1 12h-1v-17l4-20 6-18 8-16 8-12 9-11 12-12 12-9-9 6-14 12-9 10-10 14-10 18-7 19-4 16-2 17h-1v-16l4-20 7-20 10-19 10-14 11-12 10-10 17-12 21-11 21-7 16-3z" fill="#BB2592"/>
<path transform="translate(666,366)" d="m0 0h11l17 3 20 6 21 10 13 9 11 9 14 14 11 15 9 16 6 14 5 16 3 17 1 14v11l-2 18-5 20-8 20-8 14-10 14-12 13-11 10-14 10-19 10-24 8-16 3-11 1h-9v16l-3 19-5 16-7 17-8 14-10 13-9 10-8 8-16 12-18 10-15 6-18 5-11 2-11 1h-16l-18-2-21-5-19-8-16-9-16-12-11-10-7-8-11-15-8-14-8-20-5-19-2-16v-106l1-6-5-1 4-1h1l1-5-9-3-8-4-10-9-6-11-2-9v-8h1l3 15 6 10 9 7 9 3h7v-27l1-32 2 3 2 82 1-4 2-77 2-1 2 75 1 10 2-82 1-6h1l2 70 1 16 2-86h2l1 25 2 72 2-96h2l1 23 2 93 1-65 1-37 2-1 1 10 2 105 1-70 1-40 2-3 1 1 1 43 1 67 1-58 1-23 2-2v7h2l2 132 1 4 3 16 4 8 3 9 2 1 1 4h2l7 9 7 8 5 5 3 1 3 4h3v2h3l1 3 4-1v4l4-2 3 2v3l1-2 10 2 4 1v2h32l17-4 16-7 12-8 10-9 9-10 9-16 6-16 3-17h1v10l-4 18-7 16-8 12-11 12-10 9-14 8-1 1 14-7 13-10 9-9 10-14 8-16 5-16 3-16h1l-1 14-4 17-5 13-8 14-8 10-7 8-14 11-14 8 15-8 11-8 10-9 8-9 11-18 6-15 4-17 2-11h1l-1 16-4 17-6 15-6 11-9 12-9 10-12 10-4 3 13-9 12-11 9-11 8-13 6-12 5-16 3-20 2-1v9l-3 18-6 18-10 19-11 14-11 11-8 6 9-6 13-12 11-14 8-14 6-14 5-17 2-17h2v10l-4 22-6 16-8 16-9 12-9 10-8 8 8-6 7-7 11-14 10-17 6-15 5-17 3-20h1v12l-3 18-5 17-7 16-9 14-8 10-6 7 7-6 11-14 8-13 9-19 6-21 3-22h-40l-99-1-27-1v-1l76-1 105-1 18-2 20-5 23-10 16-10 11-9 15-15 12-17 10-19 7-21 3-15 1-8v-26l-3-19-5-18-8-18-10-16-9-11-9-10-13-11-14-9-15-8-16-6-17-4-17-2z" fill="#BB2592"/>
<path transform="translate(672,402)" d="m0 0h7l19 5 16 7 15 10 10 9 8 8 10 14 8 17 5 16 2 12v26l-3 16-6 17-8 15-9 12-6 7-8 7-14 10-16 8-15 5-18 3h-68l-68-1-45-1v-1l16-1 62-1 96-1 18-2 17-5 17-8 2-2-15 8-15 5-17 3h-72l-111-2v-1l12-1 49-1 77-1 46-1h-78l-104-2 3-2 99-2-4-1-91-2-11-1v-1l82-2 108-1 1-2 8-1h3v-2h2l3-3 3 1 4-1 1-2 5-4 4-2 3-1 3-3 3-4 8-6 2-4 1-3h2v-2h2l1-5 3-3 5-12v-5h2l2-24-2-16-5-16-7-14-7-9-7-8-15-11-15-7-15-4-7-1v-1h10l16 4 17 8 12 9 12 12 9 14 5 11 4 13 1 7v24l1-9v-9l-3-19-5-15-7-13-10-13-11-10-14-9-16-7-18-4v-1h8l16 4 12 5 14 8 13 12 9 10 8 13 6 14 4 18v25l-3 15-4 12 5-14 3-18v-16l-3-18-6-17-9-16-9-11-8-8-14-10-14-7-16-5-10-2v-1l13 1 16 5 16 8 10 7 10 9 7 7 7 10 9 17 5 16 2 12v25l-4 18-5 13-8 15 6-9 7-17 4-16 1-8v-21l-4-20-6-16-7-13-10-13-11-11-14-10-16-8-16-5-10-2z" fill="#8754AC"/>
<path transform="translate(352,399)" d="m0 0h101l57 1 25 1v1l-38 1-140 2-18 3-17 6-7 4 13-6 13-4 11-2h104l52 1 31 1v1l-29 1-54 1-95 1-9 1h104l85 2v1l-21 1-46 1-80 1 113 2 34 1v1l-11 1-38 1-60 1h-75l-1 2h-7l-14 4-5 3-6 1-1 2v2l-3 1-1-1-4 4h-2l-2 3-5 3-9 12-3 1-2 6-3 5-1 4h-2l-1 8h-2l1 3h-2l1 4h-2l-1 11v16l3 17 5 13 8 14 11 13 13 10 16 8 13 4 13 2v1h-10l-17-4-16-7-13-9-14-14-11-18-6-18-2-15v-10l3-20-3 16v19l3 16 4 12 6 12 8 11 9 10 13 10 15 8 16 5 13 2v1h-9l-17-4-15-6-14-9-10-9-7-7-7-10-8-15-4-13-2-9-1-11v-9l2-15 2-10-4 19v23l3 16 6 16 7 13 10 13 8 8 14 10 16 8 16 5 11 2v1h-8l-17-4-17-7-11-7-10-8-11-11-9-13-8-16-5-17-2-17 1-20 4-17 6-14v-2l-6 15-4 15-1 7v26l3 16 6 16 8 15 10 13 11 11 16 11 17 8 19 5 6 1v1l-13-1-20-6-16-8-16-12-12-12-10-14-9-19-4-13-2-11-1-11v-9l2-17 5-18 9-19 8-11 9-10 7-7 14-10 16-8 18-6z" fill="#8855AD"/>
<path transform="translate(474,483)" d="m0 0h5v33l-1 70v69l1 12 4 9 6 8 10 6 7 2h12l11-4 9-8 5-10 1-9v-1h70l37 1-1 16-5 21-6 15-9 17-10 14-12 13-2-1 9-10 11-16 8-16 5-14 4-18 1-15-3 19-7 21-8 16-8 12-12 14-11 10-2-1 15-15 11-15 8-16 6-16 4-22 1-10h-2v10l-3 15-7 19-8 15-9 12-11 12-12 10-5 2 5-5 12-11 8-9 9-14 8-17 4-13 3-18v-8l-3 20-6 18-7 14-10 14-11 12-12 10-8 5-2-1 12-9 10-9 11-14 8-14 6-15 4-17 1-11-4 20-6 16-8 14-10 13-10 10-11 8-14 8-4 2-3-1 17-9 10-8 8-7 12-16 8-15 6-20 1-9-5 19-8 16-7 11-12 13-8 7-11 7-12 6-3-1 17-9 11-9 9-9 9-13 8-16 4-15v-3l-6 18-8 15-9 11-10 10-15 10-16 7-17 4h-27l-5-1v-1h30l17-4 16-7 14-10 9-9 9-13 7-14 4-15v-2l-5 15-6 12-9 12-12 12-16 10-16 6-11 2h-25l-9-2v-1l12 1h18l15-3 12-5 11-6 11-9 8-9 8-14 5-12 1-6-6 15-9 14-9 10-14 10-13 6-15 4h-25l-16-4-4-3 9 2 8 2 9 1h10l17-3 12-5 10-6 10-9 8-9 8-16 4-13-2 5-5 12-7 11-9 10-13 9-13 6-11 3-16 1-14-2-14-5-10-6 2-1 12 6 15 4h21l13-3 16-8 12-11 8-11 5-11 1-5-4 10-7 10-8 9-13 9-15 6-13 2-16-1-16-5-14-9-10-10-6-9h3l6 9 7 7 11 7 12 5 10 2h16l15-4 13-7 11-10 7-11 5-12v-3l-5 13-8 11-10 9-16 8-8 2h-22l-13-4-12-7-11-11-6-10-2-6h2l5 10 8 10 11 8 12 5 11 2h9l14-3 14-7 9-8 7-11 5-13-8 16-9 10-9 6-12 5-4 1h-20l-12-4-10-6-6-5-8-11-5-13v-4h2l4 12 6 10 2 4h2v2l4 2 10 6 10 3h19l12-4 11-7 8-10 5-11v-2l-7 14-8 8-10 6-10 3-11 1-11-2-10-4-10-8-6-8-4-8-2-8-1-107-1-52v-23h6v25l-1 55v100l4 13 6 9 8 7 8 4 7 2h16l11-4 8-6 7-8 4-10-4 8-9 10-12 6-9 2-12-1-12-5-10-9-5-10-2-7-1-116-1-65z" fill="#262626"/>
<path transform="translate(422,485)" d="m0 0h1l1 9 1 38 1 58 1-6 2-93 2-3 2 97 1 81v-69l1-62 1-41 1-9h1l2 91 1 90 3 15 6 14 2 2-6-12-3-9-2-15v-34l1-87 1-44 1-9h1l1 32 1 52 1 95 3 14 8 16 11 12 10 7 10 5 11 3 16 1 16-3 14-6 13-10 9-11 6-12 4-16h1v7l-4 14-7 13-11 12-9 7-14 7-13 3h-21l-15-4-11-5 14 7 12 3 14 1 16-2 13-5 11-6 11-9 8-10 8-16 4-16h1v8l-4 13-8 16-9 10-7 7-11 7-11 5-12 3-8 1h-10l-13-2-11-3 12 4 6 1h25l15-4 16-8 13-10 9-11 8-14 4-11 2-10h1v8l-5 16-8 15-8 10-11 10-14 8-12 5-15 3h-18-3 25l14-3 15-6 15-10 12-12 9-14 5-10 4-13 2-14h1v10l-4 18-6 14-8 12-11 12-10 8-14 8-15 5-10 2h-24l-18-4-3 1v-3l-4-1h-4l-4-2-1-2-4-1v-2l-2 1-12-12-9-10-3-4v-2h-2v-3l-2-1-5-10-4-9-3-17v-105z" fill="#8754AC"/>
<path transform="translate(416,484)" d="m0 0h49v22l-1 48-1 117 5 13 6 8 5 5 8 6 12 5 4 1h20l12-4 9-5 10-9 7-12 4-12h1l-1 8-5 12-8 11-8 7-14 7-14 3h-9l-14-3-14-7-10-9-9-14v-3h-2l7 13 9 10 9 7 11 5 8 2h22l13-4 11-6 11-10 8-13 5-16h1l-1 10-5 12-7 11-8 8-11 7-12 5-9 2h-16l-16-4-13-7-12-11-6-9-4-4-4-10-2-11-1-95-1-52-1-23-1 44-1 87v34l2 15 6 16 3 5-1 2-6-10-5-16-1-7-1-90-1-53-1-29-1 41-1 62v76h-1l-1-6-1-82-1-57-1-37-2 93-1 82h-1l-2-134-1-38-1 23-1 48-1 103h-1l-2-132z" fill="#262626"/>
<path transform="translate(500,274)" d="m0 0h25l14 3 13 5 11 6 5 1-1 2 7 5 5 5 1 3 4 1 2 4 2 3 5 7 5 10 2 5v4l2 1 2 11 1 1v7l1 2v21l-1 81-2 72-1 5h-1l-3-91-2 80-1 12h-1l-2-57-1-88-1 93-1 36-1 17h-1l-1-19-1-36-1-123-2-15-6-16-7-11-12-12-11-7-11-5-13-3h-21l-15 4-16 8-11 9-9 11-7 14-4 15h-1v-7l5-15 8-14 12-13 15-10 16-6 13-2h13l15 3 13 5 14 9 12 12 4 5-7-9-9-9-11-7-10-5-14-4-6-1h-20l-17 4-16 8-9 7-7 6-8 11-8 16-4 14-1 8h-1v-9l4-16 8-16 8-11 9-9 15-10 15-6 13-3h22l17 4 12 5-11-5-15-4-7-1h-16l-14 2-12 4-14 7-10 8-11 11-9 14-6 14-3 12-1 7h-1v-9l4-16 8-16 7-11 14-14 14-9 10-5 14-4z" fill="#8854AC"/>
<path transform="translate(352,399)" d="m0 0h101l57 1 25 1v1l-38 1-140 2-18 3-17 6-7 4 13-6 13-4 11-2h104l52 1 31 1v1l-29 1-54 1-95 1-15 2-14 4-16 7-14 10-11 10-9 12-7 12-6 17-3 15v23l3 16 6 16 7 13 10 13 8 8 14 10 16 8 16 5 11 2v1h-8l-17-4-17-7-11-7-10-8-11-11-9-13-8-16-5-17-2-17 1-20 4-17 6-14v-2l-6 15-4 15-1 7v26l3 16 6 16 8 15 10 13 11 11 16 11 17 8 19 5 6 1v1l-13-1-20-6-16-8-16-12-12-12-10-14-9-19-4-13-2-11-1-11v-9l2-17 5-18 9-19 8-11 9-10 7-7 14-10 16-8 18-6z" fill="#7766B7"/>
<path transform="translate(672,402)" d="m0 0h7l19 5 16 7 15 10 10 9 8 8 10 14 8 17 5 16 2 12v26l-3 16-6 17-8 15-9 12-6 7-8 7-14 10-16 8-15 5-18 3h-68l-68-1-45-1v-1l16-1 62-1 96-1 18-2 17-5 17-8 2-2-15 8-15 5-17 3h-72l-111-2v-1l12-1 49-1 77-1 47-1 18-4 15-6 12-7h2v-2l4-1v-2l9-7 6-8h2l1-4h2l2-5 8-16 5-17 2-13v-16l-3-18-6-17-9-16-9-11-8-8-14-10-14-7-16-5-10-2v-1l13 1 16 5 16 8 10 7 10 9 7 7 7 10 9 17 5 16 2 12v25l-4 18-5 13-8 15 6-9 7-17 4-16 1-8v-21l-4-20-6-16-7-13-10-13-11-11-14-10-16-8-16-5-10-2z" fill="#7967B9"/>
<path transform="translate(538,480)" d="m0 0h5l1 29v32l-5 1-42 2h-15l-1-6-1-55z" fill="#262626"/>
<path transform="translate(437,485)" d="m0 0h1l2 91 1 90 3 15 6 14 2 2-6-12-3-9-2-15v-34l1-87 1-44 1-9h1l1 32 1 52 1 95 3 14 8 16 11 12 10 7 10 5 11 3 16 1 16-3 14-6 13-10 9-11 6-12 4-16h1v7l-4 14-7 13-11 12-9 7-14 7-13 3h-21l-15-4-11-5 14 7 12 3 14 1 16-2 13-5 11-6 11-9 8-10 8-16 4-16h1v8l-4 13-8 16-9 10-7 7-11 7-11 5-12 3-8 1h-10l-13-2-15-5-12-7-10-9-5-5v-2h-2l-1-4h-2l-8-16-4-14-1-7v-69l1-62 1-41z" fill="#7967B9"/>
<path transform="translate(352,371)" d="m0 0h98l74 1 14 1v1l-180 2-21 3-14 4-13 5-16 8-11 8-13 11-10 11-11 16-9 17-6 18-3 14-1 8v29l3 17 7 21 8 16 7 11 9 11 9 10 14 11 14 9 18 8 21 6 14 2v1h-10l-19-4-19-7-17-9-12-9-10-9-11-11-12-17-8-16-6-15-4-16-2-16v-21l3-20 6-20 9-19 10-15 12-14 7-7 17-13 21-11 20-7 15-3z" fill="#5A87CE"/>
<path transform="translate(352,385)" d="m0 0h92l87 1 4 2-51 1-90 1-41 1-17 3-18 6-19 10-13 10-14 14-10 14-8 16-5 13-4 18-1 9v18l3 19 5 16 6 13 6 11 10 13 15 15 18 12 15 7 16 5 17 3v1h-10l-17-4-16-6-17-9-14-11-14-14-11-16-8-16-5-13-3-12-2-16v-16l3-21 5-16 6-14 10-16 11-13 9-9 15-11 19-10 18-6z" fill="#5B85CD"/>
<path transform="translate(352,378)" d="m0 0h90l80 1 14 1v1l-63 1-107 1-16 1-19 4-15 5-21 11-13 10-10 9-11 14-9 14-8 18-5 19-2 14v22l3 19 5 16 7 16 9 14 8 10 7 8 11 9 11 8 15 8 17 6 18 4 8 1v1h-12l-21-5-17-7-13-7-16-12-15-15-10-14-9-16-7-19-3-12-2-16v-19l3-20 5-17 10-21 9-13 11-13 7-7 17-13 17-9 17-6 17-4z" fill="#5A87CE"/>
<path transform="translate(673,387)" d="m0 0 14 2 20 6 16 8 11 7 10 8 14 14 9 13 8 14 7 19 4 20v30l-4 20-6 16-10 19-7 9-9 10-9 9-14 10-19 10-19 6-21 3h-52l-82-1-43-1v-1l24-1 153-2 19-3 16-5 19-9 14-10 12-11 11-14 9-15 6-15 4-14 2-12v-30l-4-19-6-16-9-17-10-13-15-15-13-9-17-9-18-6-17-3z" fill="#5B86CD"/>
<path transform="translate(672,381)" d="m0 0h10l17 4 19 7 16 9 14 11 15 15 12 17 10 21 5 15 3 16v33l-4 20-7 19-9 17-9 12-9 10-9 9-14 10-16 9-19 7-19 4-11 1h-49l-90-1-41-1v-1l40-1 89-1 56-1 21-4 17-6 19-10 12-9 12-11 10-12 11-18 6-14 5-17 2-11 1-11v-13l-2-17-5-19-7-16-6-11-8-11-12-14-11-9-10-7-17-9-21-7-17-3z" fill="#5A87CE"/>
<path transform="translate(674,374)" d="m0 0h9l21 5 15 6 17 9 12 9 10 9 10 10 12 17 10 19 7 21 3 17 1 20-2 21-5 20-8 19-8 14-9 12-9 10-9 9-15 11-21 11-21 7-16 3-10 1h-52l-96-1-34-1v-1l56-1 109-1 23-1 21-4 19-7 19-10 12-9 10-9 7-7 11-15 9-16 6-15 5-19 2-15v-21l-3-20-5-17-11-23-10-14-12-14-14-12-18-11-15-7-21-6-12-2z" fill="#5A86CE"/>
<path transform="translate(666,366)" d="m0 0h11l17 3 20 6 21 10 13 9 11 9 14 14 11 15 9 16 6 14 5 16 3 17 1 14v11l-2 18-5 20-8 20-8 14-10 14-12 13-11 10-14 10-19 10-24 8-16 3-11 1h-57l-99-1-27-1v-1l76-1 105-1 18-2 20-5 23-10 16-10 11-9 15-15 12-17 10-19 7-21 3-15 1-8v-26l-3-19-5-18-8-18-10-16-9-11-9-10-13-11-14-9-15-8-16-6-17-4-17-2z" fill="#5A86CE"/>
<path transform="translate(352,364)" d="m0 0h102l82 1v1l-14 1-168 2-20 3-17 5-20 9-16 10-14 12-10 10-11 15-9 16-8 19-5 21-1 7v34l4 20 7 21 10 19 12 16 11 12 13 11 16 10 16 8 18 6 14 3 7 1v1h-9l-25-6-21-9-15-9-14-11-15-15-10-13-9-16-7-15-6-20-3-21v-22l3-21 6-20 8-18 10-16 9-11 11-12 11-9 13-9 17-9 16-6 17-4z" fill="#5A86CE"/>
<path transform="translate(673,395)" d="m0 0h7l16 4 16 6 14 8 13 10 13 13 10 14 8 16 4 10 4 16 1 7v28l-4 20-6 16-10 18-9 11-14 14-14 10-16 8-18 6-18 3h-62l-76-1-40-1v-1l14-1 160-2 15-2 15-4 16-7 12-7 10-8 7-6 9-11 7-10 8-16 5-15 3-17v-25l-4-20-6-16-8-15-10-13-13-13-14-10-21-10-14-4-10-2z" fill="#677BC7"/>
<path transform="translate(352,392)" d="m0 0h98l67 1 16 1v1l-45 1-134 2-20 4-16 6-15 8-13 10-12 12-10 14-8 16-6 18-2 12-1 18 2 18 5 19 6 14 10 16 11 12 8 8 13 9 15 8 18 6 14 3v1l-12-1-18-5-21-10-16-12-14-14-9-13-8-15-7-21-2-11-1-11v-11l2-17 4-15 7-17 9-15 9-11 11-11 14-10 12-7 15-6 16-4z" fill="#677BC7"/>
<path transform="translate(672,402)" d="m0 0h7l19 5 16 7 15 10 10 9 8 8 10 14 8 17 5 16 2 12v26l-3 16-6 17-8 15-9 12-6 7-8 7-14 10-16 8-15 5-18 3h-68l-68-1-45-1v-1l16-1 62-1 96-1 18-2 17-5 17-8 11-8 6-5h2l8-8 1-3 4-2 1-5 8-13 6-15 4-16 1-8v-21l-4-20-6-16-7-13-10-13-11-11-14-10-16-8-16-5-10-2z" fill="#746FC0"/>
<path transform="translate(361,484)" d="m0 0h12l-2 82-1 58h-1l-2-99-1-37-2 56-8-1-9-6-7-8-3-7-1-10 3-12 6-8 9-6z" fill="#262626"/>
<path transform="translate(507,288)" d="m0 0h13l15 3 13 5 14 9 12 12 7 11 6 13 3 13v134l-1 36-1 17h-1l-1-19-1-36-1-123-2-15-6-16-7-11-12-12-11-7-11-5-13-3h-21l-15 4-16 8-11 9-9 11-7 14-4 15h-1v-7l5-15 8-14 12-13 15-10 16-6z" fill="#7A69BD"/>
<path transform="translate(444,487)" d="m0 0h1l1 32 1 52 1 95 3 14 8 16 11 12 10 7 10 5 11 3 16 1 16-3 14-6 13-10 9-11 6-12 4-16h1v7l-4 14-7 13-11 12-9 7-14 7-13 3h-21l-15-4-14-7-12-11-7-8-7-14-3-9-2-15v-34l1-87 1-44z" fill="#766DBF"/>
<path transform="translate(374,484)" d="m0 0h27v15l-1 38-1 65-1 30h-1l-1-83-1-40v-23l-1 3-3 129h-1l-1-66-1-42v-25h-2v43l-2 85h-1l-2-100-1-22-3 129h-1l-2-100z" fill="#262626"/>
<path transform="translate(501,296)" d="m0 0h24l16 5 11 6 10 8 9 10 8 15 4 16v124l-2 59h-1l-1-17-1-33-1-126-2-14-5-13-7-11-7-8-10-7-10-5-15-4h-19l-15 4-12 6-10 8-7 8-8 14-4 15h-1v-7l5-14 6-10 9-10 9-8 16-8z" fill="#6979C6"/>
<path transform="translate(416,484)" d="m0 0h22l-1 10-1 41-1 62v76h-1l-1-6-1-82-1-57-1-37-2 93-1 82h-1l-2-134-1-38-1 23-1 48-1 103h-1l-2-132z" fill="#262626"/>
<path transform="translate(451,488)" d="m0 0h1l1 30 1 53 1 95 3 12 7 14 9 10 9 7 11 5 8 2h22l13-4 11-6 11-10 8-13 5-16h1l-1 10-5 12-7 11-8 8-11 7-12 5-9 2h-16l-16-4-13-7-12-11-7-10-5-12-2-8v-126l1-50z" fill="#677BC7"/>
<path transform="translate(505,303)" d="m0 0h16l16 4 11 6 10 8 9 11 6 13 3 13v117l-1 41-1 23h-1l-1-10-1-38-1-129-2-12-4-11-9-13-9-8-14-7-12-3h-17l-15 4-11 6-11 10-7 11-6 16h-1l1-8 5-12 8-11 8-8 11-7 14-5z" fill="#667CC7"/>
<path transform="translate(458,487)" d="m0 0h1l1 26 1 55 1 97 3 12 6 12 6 7 10 7 12 5 4 1h20l12-4 9-5 10-9 7-12 4-12h1l-1 8-5 12-8 11-8 7-14 7-14 3h-9l-14-3-14-7-10-9-9-14-4-14v-123l1-45z" fill="#5C85CD"/>
<path transform="translate(661,480)" d="m0 0 10 3 6 4 7 8 4 9v14l-4 9-7 8-10 5-8 1z" fill="#262626"/>
<path transform="translate(507,310)" d="m0 0h11l14 3 12 6 10 9 6 7 6 12 3 13v115l-1 41-1 24-2-4-1-44-1-132-3-13-6-11-9-10-10-6-10-4-4-1h-18l-13 4-12 7-7 7-6 10-5 13-1-4 5-13 8-11 10-9 12-6z" fill="#5C84CC"/>
<path transform="translate(465,484)" d="m0 0h1l1 23 1 52 1 107 3 10 5 9 6 7 11 7 9 3 12 1 14-3 10-5 10-9 7-14 2-7h1l-1 9-7 14-7 8-11 7-12 4h-19l-12-4-12-8v-2h-2l-7-10-5-12-1-4v-113l1-48z" fill="#5987CE"/>
<path transform="translate(504,318)" d="m0 0h18l10 3 8 4 10 9 7 10 4 12 1 7v101l-1 49-1 28h-1l-1-7-1-37-1-137-2-9-5-10-9-10-10-6-10-3h-17l-11 4-10 6-8 9-5 10-2 3 1-7 7-12 7-7 10-6 8-3z" fill="#5A87CE"/>
<path transform="translate(352,399)" d="m0 0h101l57 1 25 1v1l-38 1-140 2-18 3-17 6-15 8-13 10-5 2-5 3 1 4-6 4-2 1 1-7 14-14 14-10 16-8 18-6z" fill="#786BBE"/>
<path transform="translate(662,438)" d="m0 0h7l12 3 16 8 9 7 10 10 8 13 5 13 1 4v7h-1l-4-15-6-12-8-10-7-7-13-8-11-4-8-2h-5l12 3 16 8 12 11 7 9 6 12 4 16v14h-1l-2-18-4-12-6-11-9-10-9-7-11-5-11-3h-6l13 3 13 7 10 9 7 9 6 12 2 8v7h-1l-3-13-6-12-11-12-10-6-11-4-11-2 7 2 13 5 9 7 7 7 6 10 4 12v8h-1l-2-10-4-10-7-9-8-7-11-5-14-3z" fill="#262626"/>
<path transform="translate(472,483)" d="m0 0h1l1 17 1 49 1 116 4 12 6 8 8 6 10 4 12 1 12-3 10-6 7-8 4-8 2-3-1 7-6 10-8 8-12 6-4 1h-16l-12-4-8-6-8-9-5-12-1-5v-100l1-55z" fill="#5987CE"/>
<path transform="translate(605,396)" d="m0 0h1l1 76 2 66 2-63 1-64h1l1 58 2 71h-21l1-44 2-93h1l1 76 1 36 1 19 2-72z" fill="#262626"/>
<path transform="translate(505,325)" d="m0 0h16l11 4 9 6 7 8 5 11 1 4 1 42v44l-1 64-1 33h-1l-1-5-1-34-1-142-3-10-6-9-8-7-9-4-4-1h-15l-11 4-8 6-5 6-5 10-1-3 5-10 7-8 10-6z" fill="#5A86CE"/>
<path transform="translate(479,483)" d="m0 0h1l1 13 1 42 1 127 4 10 7 8 10 5 12 1 9-2 9-6 6-7 4-13h1l-1 9-5 10-7 7-10 5-4 1h-12l-11-4-8-6-7-10-2-6-1-12v-69l1-70z" fill="#5B86CD"/>
<path transform="translate(507,332)" d="m0 0h12l11 4 10 9 5 9 2 8v139l-1 35-1 5h-1l-1-32-1-149-3-9-6-8-8-5-6-2h-15l-12 6-7 8-2 2 1-4 5-7 9-6z" fill="#5888CF"/>
<path transform="translate(264,466)" d="m0 0 2 2-1 7-4 13-2 12v26l3 16 6 16 8 15 10 13 11 11 16 11 17 8 19 5 6 1v1l-13-1-20-6-16-8-16-12-12-12-10-14-9-19-4-13-2-11-1-11v-9l2-17 5-18 2-5z" fill="#756DBF"/>
<path transform="translate(694,614)" d="m0 0 3 4v2l-14 4-14 2h-68l-68-1-45-1v-1l16-1 62-1 96-1 18-2z" fill="#766DBF"/>
<path transform="translate(579,666)" d="m0 0h1v7l-4 14-7 13-11 12-9 7-14 7-13 3h-21l-15-4-14-7-12-11-7-8v-7h2v3l4 1 11 12 10 7 10 5 11 3 16 1 16-3 14-6 13-10 9-11 6-12z" fill="#687AC7"/>
<path transform="translate(672,402)" d="m0 0h7l19 5 16 7 15 10 10 9 8 8 10 14 8 17 5 16 2 12v20h-3l-1-4-1 4-1-19-4-20-6-16-7-13-10-13-11-11-14-10-16-8-16-5-10-2z" fill="#756EBF"/>
<path transform="translate(359,385)" d="m0 0h85l87 1 4 2-51 1-90 1h-37l4-2z" fill="#6081CB"/>
<path transform="translate(409,484)" d="m0 0h6v28l-1 42-1 74h-1l-1-16-1-67-1-43z" fill="#262626"/>
<path transform="translate(402,484)" d="m0 0h6v20l-1 40-1 70-1 10h-1l-1-72-1-43z" fill="#262626"/>
<path transform="translate(592,635)" d="m0 0h56v1h-20v2l40 1v1h-52l-82-1-43-1v-1l24-1z" fill="#578AD0"/>
<path transform="translate(590,392)" d="m0 0 2 3 1 88 1 36v21h-6v-16l1-36z" fill="#262626"/>
<path transform="translate(662,431)" d="m0 0h8l12 3 12 5 10 6 11 9 11 14 8 16 4 17v22h-1l-1-21-4-15-8-16-7-9-9-9-13-8-13-5-9-2-11-1z" fill="#262626"/>
<path transform="translate(501,296)" d="m0 0h24l16 5-4 1-1 2-15-3h-19l-15 4-12 6-10 8-7 8-8 14-4 15h-1v-7l5-14 6-10 9-10 9-8 16-8z" fill="#6A79C6"/>
<path transform="translate(652,661)" d="m0 0h6v11l-4 21-7 20-10 19-10 14-9 10-2 1 2-4 9-11 9-15 8-19 5-19 2-14z" fill="#262626"/>
<path transform="translate(566,621)" d="m0 0h53l1 2-7 1-4 1h-76l-45-1v-1l16-1z" fill="#6A78C5"/>
<path transform="translate(458,487)" d="m0 0h1l1 26 1 55v40l-3-3-1-18h-1v-42l1-45z" fill="#5789CF"/>
<path transform="translate(745,580)" d="m0 0v3l-2 3v3l-13 13-15 10-15 7-4-1-1-4 19-9 11-8 6-5h2l8-8 1-3z" fill="#687AC7"/>
<path transform="translate(578,438)" d="m0 0 3 2 1 6h1v34l-2 59h-1l-1-17-1-33z" fill="#786ABD"/>
<path transform="translate(673,387)" d="m0 0 14 2 20 6 16 8 11 7 10 8 14 14 8 11-2 5-4-5-9-12-15-15-13-9-17-9-18-6-17-3z" fill="#5D84CC"/>
<path transform="translate(619,432)" d="m0 0h1l3 108h-6v-23l1-33z" fill="#262626"/>
<path transform="translate(322,407)" d="m0 0 4 1-1 3-3 3-15 8-13 10-5 2-5 3 1 4-6 4-2 1 1-7 14-14 14-10z" fill="#6979C6"/>
<path transform="translate(640,438)" d="m0 0h1l1 20 2 70v12h-6l1-41z" fill="#262626"/>
<path transform="translate(352,399)" d="m0 0h22v2l14 1v1l-31 2-18 3-12 4-4-1 2-1-1-4 16-5z" fill="#7171C1"/>
<path transform="translate(633,440)" d="m0 0h1l1 21 2 79h-6v-16l1-28z" fill="#262626"/>
<path transform="translate(648,456)" d="m0 0h1l2 68v16h-6l1-41 1-42z" fill="#262626"/>
<path transform="translate(626,440)" d="m0 0h1l3 100h-6v-20l1-30z" fill="#262626"/>
<path transform="translate(444,487)" d="m0 0h1l1 32v55h-2v10h-2v-44l1-44z" fill="#6C77C4"/>
<path transform="translate(655,452)" d="m0 0h1l2 68v21l-6-1 1-36 1-35z" fill="#262626"/>
<path transform="translate(459,282)" d="m0 0h4l1 3-14 10-12 12-10 15-6 14-4 15-1 6h-1v-8l4-16 5-12 6-11 7-9 9-10z" fill="#B52C97"/>
<path transform="translate(315,509)" d="m0 0h1l2 15 5 12 7 9 7 6 10 5 16 4v6l-14-3-11-6-10-9-7-10-4-9-2-9z" fill="#262626"/>
<path transform="translate(448,400)" d="m0 0h62l25 1v1l-38 1h-69v-1l20-1z" fill="#736FC0"/>
<path transform="translate(531,466)" d="m0 0h12v6l-31-1-28-1-8-1v-1z" fill="#262626"/>
<path transform="translate(278,582)" d="m0 0 4 1 8 7 7 7 16 11 17 8 19 5 6 1v1l-13-1-20-6-16-8-16-12-12-12z" fill="#7171C1"/>
<path transform="translate(322,511)" d="m0 0h1l3 15 6 11 9 8 10 5 13 3v5l-2 1-14-4-10-7-7-7-7-14-2-9z" fill="#262626"/>
<path transform="translate(482,553)" d="m0 0h17l50 2v1l-67 3z" fill="#262626"/>
<path transform="translate(662,466)" d="m0 0 10 2 10 5 10 9 7 11 3 10v15h-1l-1-14-4-11-7-9-8-6-10-4-9-2z" fill="#262626"/>
<path transform="translate(442,659)" d="m0 0h1l1 5 2-3 2 5 3 14 7 15h-3v-3h-2l1 5h-2l-6-12-3-9-1-5z" fill="#746FC0"/>
<path transform="translate(482,545)" d="m0 0 65 3v1l-65 3z" fill="#262626"/>
<path transform="translate(536,473)" d="m0 0h7v6h-12l-43-2 4-2z" fill="#262626"/>
<path transform="translate(504,622)" d="m0 0h46l38 2v1h-55l-45-1v-1z" fill="#766DBF"/>
<path transform="translate(570,327)" d="m0 0 3 1 7 15 3 13v7l-2-2-1 2h-3l-2-14-4-12v-3l1-5h-2z" fill="#6E74C3"/>
<path transform="translate(329,509)" d="m0 0h1l3 15 6 10 9 7 9 3 7 1v7l-12-3-10-7-7-8-4-8-2-9z" fill="#262626"/>
<path transform="translate(662,473)" d="m0 0 9 2 10 6 7 7 6 12 1 4v13h-1l-1-12-4-9-6-8-8-5-5-2-9-2z" fill="#262626"/>
<path transform="translate(768,516)" d="m0 0 2 1 1 2 1 1-1 13-4 15-4 2-2-1 2-10 3-17z" fill="#7073C2"/>
<path transform="translate(592,635)" d="m0 0h56v1h-20v2l40 1v1h-52l-16-2v-1l-8-1z" fill="#687AC6"/>
<path transform="translate(672,402)" d="m0 0h7l19 5 16 7 15 10 7 6-1 3-6-4-12-9-12-7-19-7-14-3z" fill="#7171C1"/>
<path transform="translate(456,545)" d="m0 0h1l1 12h1l1 11h1v40l-3-3-1-18h-1z" fill="#687AC7"/>
<path transform="translate(501,311)" d="m0 0 4 1 3 2-16 4-11 6-10 9-6 10-5 13-1-4 5-13 8-11 10-9 12-6z" fill="#627FC9"/>
<path transform="translate(694,614)" d="m0 0 3 4v2l-14 4-6 1h-9l1-5 19-4z" fill="#7271C1"/>
<path transform="translate(264,466)" d="m0 0 2 2-1 7-4 13-2 7-5-1 1-8 5-16 1-3z" fill="#746FC0"/>
<path transform="translate(485,301)" d="m0 0 1 2-7 6-11 7-7 7-9 14-4 10-2 9h-1v-7l5-14 6-10 9-10 9-8z" fill="#6F73C2"/>
<path transform="translate(265,553)" d="m0 0 2 3 9 17 7 9-1 2-6-3-8-11-7-15z" fill="#776CBE"/>
<path transform="translate(444,487)" d="m0 0h1l1 32v43h-1l-2-30v-36z" fill="#766DBF"/>
<path transform="translate(459,584)" d="m0 0h1l1 36-1 7-3 1-1-22v-19z" fill="#5789CF"/>
<path transform="translate(515,636)" d="m0 0h41l4 3h-26l-43-1v-1z" fill="#6979C6"/>
<path transform="translate(453,692)" d="m0 0h2v3l4 1 11 12 1 2h-3l2 5-4-2-10-10-3-4z" fill="#6D76C4"/>
<path transform="translate(581,478)" d="m0 0h1v38l-1 23h-1l-1-17v-34h1z" fill="#7370C0"/>
<path transform="translate(648,635)" d="m0 0h19v3 1h-50v-1h11v-2z" fill="#5789CF"/>
<path transform="translate(277,441)" d="m0 0h2v3l2-2h2l-2 4-9 13-4 3-2-2 1-5 8-12z" fill="#786BBE"/>
<path transform="translate(527,643)" d="m0 0h23l1 3h-23l-41-1v-1z" fill="#6180CA"/>
<path transform="translate(710,607)" d="m0 0 3 1v5l-13 6-4-1-1-4z" fill="#6A78C5"/>
<path transform="translate(673,387)" d="m0 0 14 2 20 6 13 6-2 3-17-8-13-4-17-3z" fill="#677BC7"/>
<path transform="translate(666,366)" d="m0 0h11l17 3 20 6 13 6-1 3-15-7-15-5-20-4-10-1z" fill="#5E83CC"/>
<path transform="translate(761,468)" d="m0 0h2l6 16-2 6-3-1-5-17z" fill="#7370C0"/>
<path transform="translate(305,629)" d="m0 0 6 2 15 6 16 4 14 2v1h-12l-21-5-17-7-2-2z" fill="#6081CB"/>
<path transform="translate(415,495)" d="m0 0 2 3v38h-1l-1-5h-1v-19z" fill="#AB369D"/>
<path transform="translate(336,402)" d="m0 0 7 1-1 2h-3v3l-12 4-4-1 2-1-1-4z" fill="#6A78C5"/>
<path transform="translate(752,567)" d="m0 0h3l1 3-2 2-1 5-8 10-3-1 4-7 1-5z" fill="#6B78C5"/>
<path transform="translate(494,321)" d="m0 0 2 1-4 4-10 6-8 9-5 10-2 3 1-7 7-12 7-7 10-6z" fill="#5D84CC"/>
<path transform="translate(579,666)" d="m0 0h1v7l-4 14-7 13-6 7-2-1 4-7 7-10 5-13z" fill="#756EBF"/>
<path transform="translate(767,532)" d="m0 0 2 3v7l-2 6-4 2-2-1 2-10 2-5z" fill="#6F73C3"/>
<path transform="translate(608,664)" d="m0 0h1v10l-4 18-4 10-4 1 2-6 6-16z" fill="#AE339C"/>
<path transform="translate(491,407)" d="m0 0h17l31 1v1l-29 1h-19z" fill="#7E64BA"/>
<path transform="translate(501,326)" d="m0 0 2 1 1 2-11 4-8 6-5 6-5 10-1-3 5-10 7-8 10-6z" fill="#5E83CC"/>
<path transform="translate(674,374)" d="m0 0h9l21 5 15 6-1 3-14-6-18-5-12-2z" fill="#5D83CC"/>
<path transform="translate(672,381)" d="m0 0h10l17 4 16 6-1 3-15-6-19-5-8-1z" fill="#5F82CB"/>
<path transform="translate(458,487)" d="m0 0h1l1 26v18h-1l-1-8h-1v-23z" fill="#687AC6"/>
<path transform="translate(427,318)" d="m0 0 2 1-8 20-4 18h-1v-8l4-16 5-12z" fill="#AF329B"/>
<path transform="translate(461,319)" d="m0 0 3 1-8 10-7 14-3 12h-1v-7l5-14 6-10z" fill="#756EBF"/>
<path transform="translate(561,704)" d="m0 0 1 4-7 7-9 6h-2v-3l5-2 2-4z" fill="#6D75C4"/>
<path transform="translate(556,636)" d="m0 0h25l-1 3h-20l-6-1z" fill="#5988CE"/>
<path transform="translate(664,430)" d="m0 0h9l16 4 10 4-1 2-2 1-11-5-9-3-12-2z" fill="#AA379E"/>
<path transform="translate(507,332)" d="m0 0 4 1 3 2-13 2-9 5-7 8-2 2 1-4 5-7 9-6z" fill="#627FCA"/>
<path transform="translate(544,661)" d="m0 0h1l-1 9-5 10-7 7-7 4h-2l2-4 9-6 6-7z" fill="#5E83CB"/>
<path transform="translate(673,395)" d="m0 0h7l16 4 16 6-4 2-14-6-21-5z" fill="#6E74C3"/>
<path transform="translate(308,646)" d="m0 0 9 3 21 6 13 2v1h-9l-25-6-10-4z" fill="#5D84CC"/>
<path transform="translate(326,585)" d="m0 0 7 1 14 5 15 3v1l-15-1-16-5-5-3z" fill="#AA379E"/>
<path transform="translate(253,520)" d="m0 0 6 6 1 11-2 2-4-6z" fill="#746EC0"/>
<path transform="translate(767,503)" d="m0 0 3 1v2h2v14h-3l-1-4-1 4z" fill="#756EBF"/>
<path transform="translate(448,400)" d="m0 0h14l5 1-1 2h-38v-1l20-1z" fill="#657DC8"/>
<path transform="translate(287,430)" d="m0 0 7 1-4 2-6 4 1 4-6 4-2 1 1-7z" fill="#687AC6"/>
<path transform="translate(318,627)" d="m0 0 10 3 15 4 12 2v1h-10l-17-4-11-4z" fill="#6978C6"/>
<path transform="translate(432,323)" d="m0 0 3 1-7 16-3 12-1 7h-1v-9l4-16z" fill="#974AAA"/>
<path transform="translate(572,667)" d="m0 0h1l-1 10-5 12-5 8-2-1 9-18z" fill="#6D75C4"/>
<path transform="translate(668,634)" d="m0 0h8l1 3h-4v2l-33-1v-1l26-1z" fill="#6181CA"/>
<path transform="translate(450,321)" d="m0 0 3 1-8 13-5 15-1 5h-1v-7l5-15z" fill="#7D65BA"/>
<path transform="translate(258,482)" d="m0 0 3 2-1 9-1 2-5-1 1-8 1-3z" fill="#6E74C3"/>
<path transform="translate(465,484)" d="m0 0h1l1 23v13l-3-2v-12z" fill="#6081CA"/>
<path transform="translate(570,327)" d="m0 0 3 1 6 12-1 3-2-1-1-1v2h-2l-2-6v-3l1-5h-2z" fill="#776CBE"/>
<path transform="translate(601,662)" d="m0 0h1v10l-4 18-2 5h-3l3-9 4-16z" fill="#9948A8"/>
<path transform="translate(331,594)" d="m0 0 5 1 13 4 13 2v1h-10l-17-4-5-2z" fill="#974AAA"/>
<path transform="translate(272,448)" d="m0 0 4 2-2 4h-2v5l-4 3-2-2 1-5z" fill="#6C76C4"/>
<path transform="translate(439,327)" d="m0 0 1 3-5 11-3 12-1 8h-1v-9l4-16 4-8z" fill="#8D54B0"/>
<path transform="translate(266,458)" d="m0 0 2 2 1-1 3 1-5 10-5-3 2-6z" fill="#776BBE"/>
<path transform="translate(462,329)" d="m0 0 3 1-6 9-6 16h-1l1-8 5-12z" fill="#7172C2"/>
<path transform="translate(480,312)" d="m0 0m-2 1 2 1-1 3-9 7-5 5-2-1 7-8z" fill="#697AC6"/>
<path transform="translate(674,619)" d="m0 0 3 1 2 3-2 2h-9l1-5z" fill="#7172C2"/>
<path transform="translate(588,510)" d="m0 0h1v14l-1 17h-1l-1-26z" fill="#7F63B9"/>
<path transform="translate(697,439)" d="m0 0 6 1 8 6-4 2-10-7z" fill="#B42D98"/>
<path transform="translate(435,399)" d="m0 0h18l-2 3h-17z" fill="#7A69BC"/>
<path transform="translate(761,468)" d="m0 0h2l3 7v5l-2-2h-3l-2-8z" fill="#7073C2"/>
<path transform="translate(472,483)" d="m0 0h1l1 17v11h-2l-1 4z" fill="#637FC9"/>
<path transform="translate(580,353)" d="m0 0h2l1 3v7l-2-2-1 2h-3v-8l3 1z" fill="#766DBF"/>
<path transform="translate(278,582)" d="m0 0 4 1 7 6-2 4-9-9z" fill="#7370C1"/>
<path transform="translate(301,435)" d="m0 0v3l-15 15v-3l12-13z" fill="#463653"/>
<path transform="translate(670,409)" d="m0 0 13 1 14 4v2l-6-1-21-5z" fill="#8063B9"/>
<path transform="translate(759,436)" d="m0 0h2l5 8-3 4-6-9v-2z" fill="#5F82CB"/>
<path transform="translate(694,614)" d="m0 0 3 4v2l-9 2v-3l3-4z" fill="#776CBE"/>
<path transform="translate(751,574)" d="m0 0 3 1-8 11-4 1 4-7h2l2-4z" fill="#776CBE"/>
<path transform="translate(581,478)" d="m0 0h1v21h-2l-1-3v-8h1z" fill="#647EC9"/>
<path transform="translate(442,659)" d="m0 0h1l1 5 2-3 1 7-2 2-2 3-1-2z" fill="#6A78C5"/>
<path transform="translate(264,466)" d="m0 0 2 2-1 7-4 1-1-3 2-2-1-4z" fill="#6C77C5"/>
<path transform="translate(688,616)" d="m0 0 3 1-1 1 2 2-5 3-4-1 1-5z" fill="#6E75C4"/>
<path transform="translate(770,496)" d="m0 0 2 4v6h-4l-1-6z" fill="#6F74C3"/>
<path transform="translate(480,321)" d="m0 0m-2 1h2v3l-8 7-4 2 4-6z" fill="#5B86CD"/>
<path transform="translate(303,636)" d="m0 0 9 3 5 3-4 1-11-5z" fill="#5C85CD"/>
<path transform="translate(311,616)" d="m0 0 6 2 8 4-4 1-11-5z" fill="#6979C6"/>
<path transform="translate(451,687)" d="m0 0 2 3 3 1 2 4h-3v-3h-2l1 5h-2l-3-6z" fill="#776CBE"/>
<path transform="translate(767,532)" d="m0 0 2 3v5h-4l-1-5z" fill="#6A79C6"/>
<path transform="translate(694,392)" d="m0 0 7 1 8 3v2l-6-1-9-4z" fill="#5F82CB"/>
<path transform="translate(449,684)" d="m0 0 4 1 2 6-3-1h-1-3z" fill="#687AC6"/>
<path transform="translate(253,520)" d="m0 0 5 5-2 7-2-1-1-4z" fill="#6A79C6"/>
<path transform="translate(565,327)" d="m0 0 4 1 3 1v6l1 2-3-1z" fill="#6E74C3"/>
<path transform="translate(287,430)" d="m0 0 7 1-4 2-4 3-4-1z" fill="#657DC8"/>
<path transform="translate(340,401)" d="m0 0h5l1 3-2 3-6-1 1-2 4-1-3-1z" fill="#7270C1"/>
<path transform="translate(550,668)" d="m0 0 1 4-6 12-2-2 5-9z" fill="#5D84CC"/>
<path transform="translate(256,493)" d="m0 0 1 2h2v5h-3-3l1-6z" fill="#7A69BD"/>
<path transform="translate(690,435)" d="m0 0 9 3-1 2-2 1-8-4z" fill="#A53CA1"/>
<path transform="translate(290,432)" d="m0 0 3 1-7 7-2-1-1-3 6-3z" fill="#776CBE"/>
<path transform="translate(729,425)" d="m0 0 5 3 2 2-1 3-6-4-1-2z" fill="#6B77C5"/>
<path transform="translate(318,635)" d="m0 0 5 1 7 2v2l-7-1-6-2z" fill="#5F82CB"/>
<path transform="translate(327,405)" d="m0 0 2 1v2l3 1-2 2-6 1-1-2h2l-1-4z" fill="#776CBE"/>
<path transform="translate(493,338)" d="m0 0v3l-8 9-2 2 1-4 5-7z" fill="#5D84CC"/>
</svg>
